<svg xmlns="http://www.w3.org/2000/svg" style="display:none">
  <symbol id="logo" viewBox="0 0 24 24">
    <path fill="currentColor" d="M4 12a8 8 0 1 1 16 0v6a2 2 0 0 1-2 2h-4v-5h4v-3a6 6 0 1 0-12 0v3h4v5H6a2 2 0 0 1-2-2z"/>
  </symbol>
  <symbol id="plus" viewBox="0 0 24 24"><path fill="currentColor" d="M11 11V5h2v6h6v2h-6v6h-2v-6H5v-2z"/></symbol>
  <symbol id="settings" viewBox="0 0 24 24"><path fill="currentColor" d="M12 15.5A3.5 3.5 0 1 0 12 8.5a3.5 3.5 0 0 0 0 7zM19.4 15a7.8 7.8 0 0 0 .1-1l2-1.6-2-3.4-2.4.6a7.8 7.8 0 0 0-.8-.5l-.4-2.5H8.1l-.4 2.5-.8.5-2.4-.6-2 3.4 2 1.6.1 1-.1 1-2 1.6 2 3.4 2.4-.6.8.5.4 2.5h6.4l.4-2.5.8-.5 2.4.6 2-3.4-2-1.6-.1-1z"/></symbol>
  <symbol id="export" viewBox="0 0 24 24"><path fill="currentColor" d="M14 3v2H5v14h14v-9h2v11H3V3z"/><path fill="currentColor" d="M21 3h-7v2h3.59L9 13.59 10.41 15 19 6.41V10h2z"/></symbol>
  <symbol id="import" viewBox="0 0 24 24"><path fill="currentColor" d="M14 3v2H5v14h14v-9h2v11H3V3z"/><path fill="currentColor" d="M5 10h2V6h4V4H5zM13.59 9 12.17 7.59 17.76 2H14V0h8v8h-2V4.24z"/></symbol>
  <symbol id="edit" viewBox="0 0 24 24"><path fill="currentColor" d="M3 17.25V21h3.75L17.8 9.95l-3.75-3.75zM20.7 7.04a1 1 0 0 0 0-1.41L18.37 3.3a1 1 0 0 0-1.41 0l-1.84 1.84 3.75 3.75z"/></symbol>
  <symbol id="trash" viewBox="0 0 24 24"><path fill="currentColor" d="M6 7h12v2H6zM8 9h2v10H8zm6 0h2v10h-2zM9 4h6v2H9zM5 6h14v14a2 2 0 0 1-2 2H7a2 2 0 0 1-2-2z"/></symbol>
  <symbol id="calendar" viewBox="0 0 24 24"><path fill="currentColor" d="M7 2h2v2h6V2h2v2h3v18H4V4h3zM6 8v12h12V8z"/></symbol>
  <symbol id="db" viewBox="0 0 24 24"><path fill="currentColor" d="M12 2c-4.97 0-9 1.79-9 4v12c0 2.21 4.03 4 9 4s9-1.79 9-4V6c0-2.21-4.03-4-9-4zm0 2c3.87 0 7 .9 7 2s-3.13 2-7 2-7-.9-7-2 .13-2 7-2zm0 14c-3.87 0-7-.9-7-2V9.82C6.2 10.55 8.9 11 12 11s5.8-.45 7-1.18V16c0 1.1-3.13 2-7 2z"/></symbol>
</svg>
